Normalized EMG Linear Envelopes
nRows=163
nColumns=4

endheader
time	 med_gas_r	  soleus_r	 tib_ant_r	
2.31235	  0.092320	  0.107467	  0.011851	
2.37485	  0.084503	  0.099381	  0.010848	
2.43734	  0.078429	  0.094093	  0.010238	
2.49984	  0.074494	  0.092587	  0.010112	
2.56234	  0.071993	  0.093984	  0.010342	
2.62483	  0.070573	  0.096939	  0.010766	
2.68733	  0.070365	  0.100492	  0.011241	
2.74982	  0.070966	  0.103645	  0.011631	
2.81232	  0.071549	  0.104995	  0.011709	
2.87482	  0.071701	  0.103566	  0.011274	
2.93731	  0.071526	  0.099986	  0.010472	
2.99981	  0.071251	  0.096329	  0.009738	
3.0623	  0.071016	  0.094359	  0.009409	
3.1248	  0.071061	  0.094044	  0.009539	
3.1873	  0.071737	  0.094201	  0.009890	
3.24979	  0.073065	  0.094075	  0.010068	
3.31229	  0.074508	  0.093757	  0.009887	
3.37478	  0.075248	  0.093689	  0.009510	
3.43728	  0.074676	  0.094313	  0.009194	
3.49978	  0.072827	  0.095657	  0.009102	
3.56227	  0.070401	  0.096921	  0.009291	
3.62477	  0.068561	  0.097192	  0.009669	
3.68726	  0.068481	  0.096798	  0.010057	
3.74976	  0.070121	  0.096851	  0.010283	
3.81226	  0.071965	  0.097409	  0.010210	
3.87475	  0.073004	  0.097268	  0.009860	
3.93725	  0.074218	  0.095488	  0.009456	
3.99974	  0.077333	  0.092212	  0.009201	
4.06224	  0.082903	  0.088262	  0.009148	
4.12474	  0.089734	  0.084777	  0.009267	
4.18723	  0.094785	  0.083037	  0.009459	
4.24973	  0.094655	  0.083815	  0.009640	
4.31222	  0.089568	  0.086611	  0.009877	
4.37472	  0.083784	  0.089879	  0.010343	
4.43722	  0.080648	  0.092338	  0.011212	
4.49971	  0.080195	  0.093879	  0.012469	
4.56221	  0.081181	  0.095294	  0.013707	
4.6247	  0.082450	  0.097411	  0.014349	
4.6872	  0.083711	  0.100080	  0.014243	
4.7497	  0.087213	  0.102151	  0.013962	
4.81219	  0.096945	  0.103484	  0.014640	
4.87469	  0.113357	  0.106095	  0.017723	
4.93718	  0.130782	  0.111860	  0.024970	
4.99968	  0.144081	  0.120588	  0.037938	
5.06218	  0.155880	  0.131020	  0.055981	
5.12467	  0.174018	  0.141732	  0.075842	
5.18717	  0.201403	  0.152126	  0.095587	
5.24966	  0.229549	  0.164324	  0.116937	
5.31216	  0.247883	  0.181404	  0.141560	
5.37466	  0.256301	  0.202377	  0.167099	
5.43715	  0.258079	  0.222325	  0.188947	
5.49965	  0.251947	  0.238420	  0.206015	
5.56214	  0.243153	  0.251635	  0.221703	
5.62464	  0.243829	  0.263335	  0.237442	
5.68714	  0.255382	  0.274907	  0.249387	
5.74963	  0.269194	  0.287917	  0.253029	
5.81213	  0.280700	  0.302392	  0.249109	
5.87462	  0.288255	  0.318120	  0.245181	
5.93712	  0.289610	  0.334244	  0.249438	
5.99962	  0.286727	  0.345447	  0.262645	
6.06211	  0.286009	  0.346608	  0.280157	
6.12461	  0.293440	  0.341922	  0.299295	
6.1871	  0.309597	  0.342366	  0.319449	
6.2496	  0.329234	  0.357396	  0.338526	
6.3121	  0.346789	  0.391098	  0.354373	
6.37459	  0.359198	  0.439030	  0.368393	
6.43709	  0.365834	  0.489119	  0.386095	
6.49958	  0.368369	  0.527079	  0.413784	
6.56208	  0.370558	  0.540265	  0.453826	
6.62458	  0.380594	  0.527474	  0.501731	
6.68707	  0.406042	  0.507581	  0.543897	
6.74957	  0.440762	  0.504358	  0.563002	
6.81206	  0.471204	  0.521249	  0.557340	
6.87456	  0.495513	  0.539917	  0.544785	
6.93706	  0.515850	  0.543458	  0.537245	
6.99955	  0.523251	  0.534306	  0.530797	
7.06205	  0.513302	  0.525963	  0.523585	
7.12454	  0.495938	  0.525266	  0.519049	
7.18704	  0.476179	  0.529515	  0.518264	
7.24954	  0.455840	  0.533495	  0.525024	
7.31203	  0.449283	  0.533550	  0.541426	
7.37453	  0.460427	  0.527626	  0.556181	
7.43702	  0.464720	  0.514728	  0.557418	
7.49952	  0.444447	  0.497729	  0.549611	
7.56202	  0.419642	  0.485236	  0.545637	
7.62451	  0.424155	  0.484625	  0.551489	
7.68701	  0.460003	  0.494758	  0.561950	
7.7495	  0.495383	  0.511067	  0.568896	
7.812	  0.510209	  0.533637	  0.573525	
7.8745	  0.515336	  0.565100	  0.584398	
7.93699	  0.526108	  0.605803	  0.603979	
7.99949	  0.542911	  0.652930	  0.621944	
8.06198	  0.554556	  0.698255	  0.622404	
8.12448	  0.552419	  0.727057	  0.601682	
8.18698	  0.538819	  0.728439	  0.576137	
8.24947	  0.517613	  0.710353	  0.566411	
8.31197	  0.493490	  0.693754	  0.581319	
8.37446	  0.480814	  0.687869	  0.617503	
8.43696	  0.487175	  0.683708	  0.660684	
8.49946	  0.496122	  0.673154	  0.688002	
8.56195	  0.491130	  0.660600	  0.684411	
8.62445	  0.483469	  0.653487	  0.657558	
8.68694	  0.489494	  0.650678	  0.628102	
8.74944	  0.497904	  0.643889	  0.610658	
8.81194	  0.490990	  0.629318	  0.610518	
8.87443	  0.474392	  0.613864	  0.629693	
8.93693	  0.456664	  0.604214	  0.663311	
8.99942	  0.427927	  0.596933	  0.689885	
9.06192	  0.383604	  0.587750	  0.681282	
9.12442	  0.347392	  0.579874	  0.632674	
9.18691	  0.348750	  0.578321	  0.570214	
9.24941	  0.386282	  0.586262	  0.524680	
9.3119	  0.432676	  0.606193	  0.510927	
9.3744	  0.473179	  0.637338	  0.528899	
9.4369	  0.514164	  0.671882	  0.567418	
9.49939	  0.551805	  0.695365	  0.607029	
9.56189	  0.566485	  0.694564	  0.629521	
9.62438	  0.555079	  0.669086	  0.628871	
9.68688	  0.533775	  0.630837	  0.613109	
9.74938	  0.511667	  0.592598	  0.592747	
9.81187	  0.488730	  0.566110	  0.569662	
9.87437	  0.462096	  0.563451	  0.545873	
9.93686	  0.426448	  0.586879	  0.533523	
9.99936	  0.385891	  0.624187	  0.541500	
10.0619	  0.355482	  0.657378	  0.561405	
10.1244	  0.347585	  0.669411	  0.576306	
10.1868	  0.361329	  0.654316	  0.576806	
10.2493	  0.374485	  0.627743	  0.563700	
10.3118	  0.357611	  0.609431	  0.542968	
10.3743	  0.309293	  0.596177	  0.524901	
10.4368	  0.257209	  0.571850	  0.519228	
10.4993	  0.219900	  0.534490	  0.525425	
10.5618	  0.191265	  0.494681	  0.533121	
10.6243	  0.162088	  0.458540	  0.530836	
10.6868	  0.133567	  0.425594	  0.512405	
10.7493	  0.110452	  0.393058	  0.479411	
10.8118	  0.095955	  0.356417	  0.439008	
10.8743	  0.090561	  0.314286	  0.399045	
10.9368	  0.090749	  0.272351	  0.363983	
10.9993	  0.092554	  0.238460	  0.333317	
11.0618	  0.094457	  0.216419	  0.303942	
11.1243	  0.094799	  0.203606	  0.272775	
11.1868	  0.091833	  0.192822	  0.238731	
11.2493	  0.086913	  0.178591	  0.205825	
11.3118	  0.082706	  0.161679	  0.179605	
11.3743	  0.079515	  0.146409	  0.160001	
11.4368	  0.077001	  0.135269	  0.143591	
11.4993	  0.077015	  0.127930	  0.128657	
11.5618	  0.081150	  0.123594	  0.114864	
11.6243	  0.086810	  0.121571	  0.102779	
11.6868	  0.089471	  0.120033	  0.092832	
11.7492	  0.088360	  0.116713	  0.083797	
11.8117	  0.085949	  0.112149	  0.074907	
11.8742	  0.083575	  0.110528	  0.067352	
11.9367	  0.081999	  0.115535	  0.062074	
11.9992	  0.083015	  0.126077	  0.058494	
12.0617	  0.086263	  0.136948	  0.055384	
12.1242	  0.087980	  0.142960	  0.051270	
12.1867	  0.085985	  0.142172	  0.045784	
12.2492	  0.082228	  0.136434	  0.042219	
12.3117	  0.078564	  0.129048	  0.046025	
12.3742	  0.074257	  0.121567	  0.059451	
12.4367	  0.068750	  0.113930	  0.079270	
